<svg id="visual" viewBox="0 0 1280 400" width="1280" height="400" xmlns="http://www.w3.org/2000/svg" xmlns:xlink="http://www.w3.org/1999/xlink" version="1.1"><path d="M0 289L42.7 294.8C85.3 300.7 170.7 312.3 256 309.5C341.3 306.7 426.7 289.3 512 286C597.3 282.7 682.7 293.3 768 302.3C853.3 311.3 938.7 318.7 1024 315C1109.3 311.3 1194.7 296.7 1237.3 289.3L1280 282L1280 401L1237.3 401C1194.7 401 1109.3 401 1024 401C938.7 401 853.3 401 768 401C682.7 401 597.3 401 512 401C426.7 401 341.3 401 256 401C170.7 401 85.3 401 42.7 401L0 401Z" fill="#A2D2FF" stroke-linecap="round" stroke-linejoin="miter"></path></svg>